<?xml version="1.0" standalone="no"?><!DOCTYPE svg PUBLIC "-//W3C//DTD SVG 1.1//EN" "http://www.w3.org/Graphics/SVG/1.1/DTD/svg11.dtd"><svg class="icon" width="200px" height="200.00px" viewBox="0 0 1024 1024" version="1.1" xmlns="http://www.w3.org/2000/svg"><path fill="#333333" d="M864 896H32c-19.2 0-32-12.8-32-32V288c0-19.2 12.8-32 32-32h832c19.2 0 32 12.8 32 32v576c0 19.2-12.8 32-32 32zM64 832h768V320H64v512z"  /><path fill="#333333" d="M448 768c-70.4 0-128-51.2-128-112 0-19.2 12.8-32 32-32s32 12.8 32 32c0 25.6 28.8 48 64 48s64-22.4 64-48c0-22.4-25.6-48-64-48-70.4 0-128-48-128-112 0-60.8 57.6-112 128-112s128 51.2 128 112c0 19.2-12.8 32-32 32s-32-12.8-32-32c0-25.6-28.8-48-64-48s-64 22.4-64 48 28.8 48 64 48c70.4 0 128 51.2 128 112S518.4 768 448 768z"  /><path fill="#333333" d="M448 441.6c-19.2 0-32-12.8-32-32V384c0-19.2 12.8-32 32-32s32 12.8 32 32v25.6c0 19.2-12.8 32-32 32zM448 800c-19.2 0-32-12.8-32-32v-25.6c0-19.2 12.8-32 32-32s32 12.8 32 32v25.6c0 19.2-12.8 32-32 32z"  /><path fill="#333333" d="M992 800c-19.2 0-32-12.8-32-32V192H128c-19.2 0-32-12.8-32-32s12.8-32 32-32h864c19.2 0 32 12.8 32 32v608c0 19.2-12.8 32-32 32z"  /></svg>